<?xml version="1.0" standalone="no"?>
<!DOCTYPE svg PUBLIC "-//W3C//DTD SVG 20010904//EN" "http://www.w3.org/TR/2001/REC-SVG-20010904/DTD/svg10.dtd">
<!-- Created using Krita: https://krita.org -->
<svg xmlns="http://www.w3.org/2000/svg" 
    xmlns:xlink="http://www.w3.org/1999/xlink"
    xmlns:krita="http://krita.org/namespaces/svg/krita"
    xmlns:sodipodi="http://sodipodi.sourceforge.net/DTD/sodipodi-0.dtd"
    width="595.44pt"
    height="568.8pt"
    viewBox="0 0 595.44 568.8">
<defs/>
<path id="shape0" transform="matrix(0.897455309908911 -0.441105391846785 0.441105391846785 0.897455309908911 417.292020996094 456.163141742363)" fill="none" stroke="#e68fac" stroke-width="8.64" stroke-linecap="square" stroke-linejoin="bevel" d="M0 24.2817C7.62626 24.2817 16.9192 39.5449 24.5657 36.62C65.4584 20.978 40.8549 -8.94651 30.8107 2.57966C5.46478 31.6652 68.3247 59.2778 68.3247 29.1915" sodipodi:nodetypes="cccc"/><path id="shape01" transform="matrix(-0.977792825078887 -0.209573832393858 -0.209573832393858 0.977792825078887 589.09016064465 304.73307240437)" fill="#d8fff4" fill-rule="evenodd" stroke="#c3f0e3" stroke-width="14.4" stroke-linecap="square" stroke-linejoin="bevel" d="M132.613 56.3829C132.613 -38.1659 -14.5515 3.76558 1.1765 54.9429C6.55707 72.4507 39.0832 52.7829 44.9886 52.7829C47.0878 52.7829 50.963 50.6229 50.963 50.6229C50.963 50.6229 48.0216 53.2484 46.9801 54.9429C39.0151 67.9015 31.0086 87.7941 46.3163 98.8629C57.4749 106.932 75.3873 99.0115 84.154 89.5029C84.6394 88.9764 88.6862 85.0586 89.4646 85.9029C92.2857 88.9627 77.668 156.888 108.715 145.663C133.085 136.852 149.526 85.4975 139.915 54.2229C138.052 48.1586 132.613 45.5149 132.613 40.5429" sodipodi:nodetypes="ccccccccccc"/><path id="shape1" transform="translate(7.36393200936425, 225.137118097627)" fill="#d8fff4" fill-rule="evenodd" stroke="#beecdf" stroke-width="14.4" stroke-linecap="square" stroke-linejoin="bevel" d="M143.836 56.3829C143.836 -38.1659 -15.783 3.76559 1.27607 54.9429C7.11201 72.4507 42.3909 52.7829 48.7961 52.7829C51.0729 52.7829 55.2761 50.6229 55.2761 50.6229C55.2761 50.6229 52.0857 53.2484 50.9561 54.9429C42.317 67.9015 33.6329 87.7941 50.2361 98.8629C62.3391 106.932 81.7674 99.0115 91.2761 89.5029C91.8026 88.9764 96.1918 85.0586 97.0361 85.9029C100.096 88.9627 84.2412 156.888 117.916 145.663C144.348 136.852 162.181 85.4975 151.756 54.2229C149.735 48.1586 143.836 45.5149 143.836 40.5429" sodipodi:nodetypes="ccccccccccc"/><rect id="shape02" transform="matrix(0.987847479419492 0.155426372937704 -0.155426372937704 0.987847479419492 169.114010809925 174.969364273879)" fill="#fecada" fill-rule="evenodd" stroke="#e68fac" stroke-width="10.987512" stroke-linecap="square" stroke-linejoin="bevel" width="303.6" height="290.16"/><ellipse id="shape2" transform="matrix(0.977331447348559 0.211715001885963 -0.211715001885963 0.977331447348559 236.177143883012 334.854035834355)" rx="59.4219563078955" ry="40.2934055282332" cx="59.4219563078955" cy="40.2934055282332" fill="#f79eba" fill-rule="evenodd" stroke="#ed8fad" stroke-width="11.52" stroke-linecap="square" stroke-linejoin="bevel"/><ellipse id="shape3" transform="matrix(0.836636110687712 0.547759087823599 -0.547759087823599 0.836636110687712 266.052468239076 367.475355671537)" rx="9.72" ry="12.24" cx="9.72" cy="12.24" fill="#fa80a7" fill-rule="evenodd" stroke="none" stroke-width="14.4" stroke-linecap="square" stroke-linejoin="bevel"/><ellipse id="shape03" transform="matrix(0.992427510710322 -0.122831738509698 0.122831738509698 0.992427510710322 294.170144174717 379.286611573287)" rx="9.72" ry="12.24" cx="9.72" cy="12.24" fill="#fa80a7" fill-rule="evenodd" stroke-opacity="0" stroke="#000000" stroke-width="0" stroke-linecap="square" stroke-linejoin="bevel"/><ellipse id="shape4" transform="matrix(0.982836150530155 0.184480625570997 -0.184480625570997 0.982836150530155 207.619993353486 305.370697366091)" rx="16.56" ry="15.48" cx="16.56" cy="15.48" fill="#000000" fill-rule="evenodd" stroke="none" stroke-width="14.4" stroke-linecap="square" stroke-linejoin="bevel"/><ellipse id="shape04" transform="matrix(0.982836150530155 0.184480625570997 -0.184480625570997 0.982836150530155 349.61999383832 332.010696648536)" rx="16.56" ry="15.48" cx="16.56" cy="15.48" fill="#000000" fill-rule="evenodd" stroke-opacity="0" stroke="#000000" stroke-width="0" stroke-linecap="square" stroke-linejoin="bevel"/><ellipse id="shape5" transform="matrix(0.882998555898142 0.469375702696464 -0.469375702696464 0.882998555898142 225.965611860714 274.68615918945)" rx="20.9394597545925" ry="9.72" cx="20.9394597545925" cy="9.72" fill="#e597b0" fill-rule="evenodd" stroke="none" stroke-width="14.4" stroke-linecap="square" stroke-linejoin="bevel"/><ellipse id="shape05" transform="matrix(-0.993491256708145 0.113908396725112 -0.113908396725112 -0.993491256708145 373.166764595225 320.059193424069)" rx="18.8204884572277" ry="9.72" cx="18.8204884572277" cy="9.72" fill="#e597b0" fill-rule="evenodd" stroke-opacity="0" stroke="#000000" stroke-width="0" stroke-linecap="square" stroke-linejoin="bevel"/><path id="shape6" transform="translate(137.159999030686, 133.919999053583)" fill="#f79eba" fill-rule="evenodd" stroke="#e68ba8" stroke-width="14.4" stroke-linecap="square" stroke-linejoin="bevel" d="M7.7976 10.576C36.5396 10.5939 -4.95478 69.6249 20.52 102.6L123.12 57.0376C86.3015 21.3848 32.5966 -17.5424 0 8.47771" sodipodi:nodetypes="cccc"/><path id="shape06" transform="matrix(-0.98023980188947 -0.197812868114528 -0.197812868114528 0.98023980188947 498.33647695064 177.398229352087)" fill="#f79eba" fill-rule="evenodd" stroke="#e68ba8" stroke-width="14.4" stroke-linecap="square" stroke-linejoin="bevel" d="M6.73917 10.576C31.5798 10.5939 -4.28223 69.6249 17.7346 102.6L106.408 57.0376C74.5871 21.3848 28.172 -17.5424 0 8.47772" sodipodi:nodetypes="cccc"/><path id="shape7" transform="matrix(0.991352033911664 -0.131229359745488 0.131229359745488 0.991352033911664 252.585981993582 83.3000222497639)" fill="#ffff00" fill-rule="evenodd" stroke="#ffcb77" stroke-width="14.4" stroke-linecap="square" stroke-linejoin="bevel" d="M0.902418 104.709C-0.0701482 104.709 -0.389572 103.436 0.614408 102.112C4.75201 96.6549 17.4929 25.6838 23.1869 10.6654C23.4812 9.8891 39.8087 51.3158 47.0226 51.3158C47.7838 51.3158 50.7629 44.3999 50.9677 43.9947C54.7465 36.5196 76.9942 -2.05163 80.2352 0.0854924C92.1856 7.9655 88.6591 50.5172 93.6059 63.5647C95.4944 68.5459 104.441 57.5644 108.218 55.0737C115.968 49.9635 121.573 45.4912 127.478 37.7028C127.565 37.588 129.855 36.1354 130.152 36.5272C131.64 38.4888 112.503 126.551 107.864 139.976" sodipodi:nodetypes="ccccccccccc"/><path id="shape8" transform="translate(266.039998141345, 191.159998552507)" fill="none" stroke="#ffcb77" stroke-width="14.4" stroke-linecap="square" stroke-linejoin="miter" stroke-miterlimit="2" d="M0 0L110.16 16.2" sodipodi:nodetypes="cc"/><ellipse id="shape07" transform="matrix(0.994008913765494 0.109299036385249 -0.109299036385249 0.994008913765494 322.183353614226 117.175743819816)" rx="7.92280599542152" ry="13.1583703249242" cx="7.92280599542152" cy="13.1583703249242" fill="#d00000" fill-rule="evenodd" stroke="none" stroke-width="3.1608" stroke-linecap="square" stroke-linejoin="bevel"/><ellipse id="shape08" transform="matrix(0.981723538669908 0.190312620762352 -0.190312620762352 0.981723538669908 354.302555506973 145.047878370646)" rx="6.96383998793365" ry="11.9388380362655" cx="6.96383998793365" cy="11.9388380362655" fill="#77b3fe" fill-rule="evenodd" stroke-opacity="0" stroke="#000000" stroke-width="0" stroke-linecap="square" stroke-linejoin="bevel"/><ellipse id="shape09" transform="matrix(0.994380776986628 0.105862506863715 -0.105862506863715 0.994380776986628 287.347914226224 136.574052149932)" rx="6.96383998793365" ry="11.9388380362655" cx="6.96383998793365" cy="11.9388380362655" fill="#77b3fe" fill-rule="evenodd" stroke-opacity="0" stroke="#000000" stroke-width="0" stroke-linecap="square" stroke-linejoin="bevel"/>
</svg>
