<?xml version="1.0" standalone="no"?>
<!DOCTYPE svg PUBLIC "-//W3C//DTD SVG 20010904//EN" "http://www.w3.org/TR/2001/REC-SVG-20010904/DTD/svg10.dtd">
<!-- Created using Krita: https://krita.org -->
<svg xmlns="http://www.w3.org/2000/svg" 
    xmlns:xlink="http://www.w3.org/1999/xlink"
    xmlns:krita="http://krita.org/namespaces/svg/krita"
    xmlns:sodipodi="http://sodipodi.sourceforge.net/DTD/sodipodi-0.dtd"
    width="595.2pt"
    height="568.32pt"
    viewBox="0 0 595.2 568.32">
<defs/>
<path id="shape0" transform="matrix(-0.843644170610363 0.536902703844151 0.536902703844151 0.843644170610363 178.284150366745 60.1948196974841)" fill="#f6fdff" stroke="#cccccc" stroke-width="10.987512" stroke-linecap="square" stroke-linejoin="bevel" d="M0 61.6331C19.4454 61.6331 42.6502 34.5636 51.6347 12.1398C53.3986 7.73771 58.3697 0 58.3697 0C58.3697 0 61.3453 11.073 62.1114 16.8091C65.9303 45.4023 71.995 76.3806 53.8798 98.9865C23.4027 137.019 11.2917 61.6331 2.99332 61.6331" sodipodi:nodetypes="cccccc"/><path id="shape1" transform="matrix(0.967119334541438 0.254323008703748 -0.254323008703748 0.967119334541438 335.798401605201 45.824766703055)" fill="#f6fdff" fill-rule="evenodd" stroke="#cccccc" stroke-width="10.987512" stroke-linecap="square" stroke-linejoin="bevel" d="M0 53.8493C20.2401 53.8493 44.3933 30.1984 53.7451 10.6067C55.581 6.76049 60.7553 0 60.7553 0C60.7553 0 63.8525 9.67455 64.6499 14.6862C68.6249 39.6683 74.9375 66.7343 56.0818 86.4852C24.3592 119.714 11.7533 53.8493 3.11566 53.8493" sodipodi:nodetypes="cccccc"/><rect id="shape2" transform="matrix(0.990381531623344 -0.138363368777392 0.138363368777392 0.990381531623344 127.186325957352 219.199006772497)" fill="#59932b" fill-rule="evenodd" stroke="#5c7f00" stroke-width="10.987512" stroke-linecap="square" stroke-linejoin="bevel" width="303.6" height="290.16"/><path id="shape3" transform="translate(71.2799972729572, 190.079992727886)" fill="none" stroke="#5c7f00" stroke-width="10.987512" stroke-linecap="square" stroke-linejoin="miter" stroke-miterlimit="2" d="M58.32 28.08L0 0" sodipodi:nodetypes="cc"/><path id="shape4" transform="translate(424.799983747927, 130.319995014195)" fill="none" stroke="#5c7f00" stroke-width="10.987512" stroke-linecap="square" stroke-linejoin="miter" stroke-miterlimit="2" d="M0 47.52C12.7641 31.68 27.9158 15.84 42.48 0" sodipodi:nodetypes="cc"/><path id="shape5" transform="translate(444.959982976642, 128.879995069286)" fill="none" stroke="#5c7f00" stroke-width="10.987512" stroke-linecap="square" stroke-linejoin="miter" stroke-miterlimit="2" d="M25.2 0L0 141.12" sodipodi:nodetypes="cc"/><path id="shape6" transform="translate(67.6799974106867, 190.079992727886)" fill="none" stroke="#5c7f00" stroke-width="10.987512" stroke-linecap="square" stroke-linejoin="miter" stroke-miterlimit="2" d="M0 0L70.56 113.76" sodipodi:nodetypes="cc"/><path id="shape7" transform="matrix(0.997941976762776 0.0641234045790068 -0.0641234045790068 0.997941976762776 74.3402428083759 195.21341781427)" fill="#59932b" fill-rule="evenodd" stroke="none" stroke-width="10.987512" stroke-linecap="square" stroke-linejoin="bevel" d="M0 0L54.2071 21.9772L63.7299 87.2809L0 0" sodipodi:nodetypes="cccc"/><path id="shape01" transform="matrix(-0.961573371666759 0.27454808486207 0.27454808486207 0.961573371666759 464.216404649788 140.811266114421)" fill="#59932b" fill-rule="evenodd" stroke-opacity="0" stroke="#000000" stroke-width="0" stroke-linecap="square" stroke-linejoin="bevel" d="M0 0L44.5934 27.4094L52.4273 108.854L0 0" sodipodi:nodetypes="cccc"/><path id="shape8" transform="matrix(0.813112361747047 -0.582106766129842 0.582106766129842 0.813112361747047 445.542974971811 217.271335880871)" sodipodi:type="arc" sodipodi:rx="11.7697698537983" sodipodi:ry="21.5396217087563" sodipodi:cx="11.7697769364868" sodipodi:cy="0.365033611317847" sodipodi:start="6.28318530717959" sodipodi:end="3.15854054114609" sodipodi:open="true" d="M0.00169736 -9.57333e-15C-0.0699667 7.73774 2.13207 14.9511 5.7701 18.896C9.40814 22.8409 13.9229 22.9109 17.597 19.0794C21.271 15.2479 23.5395 8.10389 23.5395 0.365034" fill="none" stroke="#ffb100" stroke-width="10.987512" stroke-linecap="square" stroke-linejoin="bevel"/><path id="shape02" transform="matrix(0.73109530914612 -0.682275346868509 0.682275346868509 0.73109530914612 455.910625540623 178.528666168181)" sodipodi:type="arc" sodipodi:rx="10.2230228119856" sodipodi:ry="11.4551601321792" sodipodi:cx="10.2230289638889" sodipodi:cy="0.194131472122113" sodipodi:start="6.28318530717959" sodipodi:end="3.15854054114609" sodipodi:open="true" d="M0.0014743 5.54152e-16C-0.0607719 4.11507 1.85188 7.95128 5.01182 10.0492C8.17175 12.1472 12.0932 12.1845 15.2844 10.1468C18.4757 8.10913 20.4461 4.30979 20.4461 0.194131" fill="none" stroke="#ffb100" stroke-width="10.987512" stroke-linecap="square" stroke-linejoin="bevel"/><path id="shape03" transform="matrix(0.720326140575413 0.693635531964547 -0.693635531964547 0.720326140575413 78.1013116856766 210.248497126329)" sodipodi:type="arc" sodipodi:rx="11.7697698537983" sodipodi:ry="21.5396217087563" sodipodi:cx="11.7697769364868" sodipodi:cy="0.365033611317905" sodipodi:start="6.28318530717959" sodipodi:end="3.15854054114609" sodipodi:open="true" d="M0.00169736 9.4369e-16C-0.0699667 7.73774 2.13207 14.9511 5.7701 18.896C9.40814 22.8409 13.9229 22.9109 17.597 19.0794C21.271 15.2479 23.5395 8.10389 23.5395 0.365034" fill="none" stroke="#ffb100" stroke-width="10.987512" stroke-linecap="square" stroke-linejoin="bevel"/><ellipse id="shape9" transform="translate(195.839999889817, 288.000000578464)" rx="43.1999946560981" ry="42.1199925901566" cx="43.1999946560981" cy="42.1199925901566" fill="#e9f7ff" fill-rule="evenodd" stroke="none" stroke-width="10.987512" stroke-linecap="square" stroke-linejoin="bevel"/><ellipse id="shape04" transform="translate(326.879994876465, 288.7199889541)" rx="35.63999494533" ry="33.4799987191162" cx="35.63999494533" cy="33.4799987191162" fill="#e9f7ff" fill-rule="evenodd" stroke-opacity="0" stroke="#000000" stroke-width="0" stroke-linecap="square" stroke-linejoin="bevel"/><ellipse id="shape10" transform="translate(223.199991460775, 313.200000385642)" rx="19.0799992700341" ry="18.3599931135285" cx="19.0799992700341" cy="18.3599931135285" fill="#1f512b" fill-rule="evenodd" stroke="none" stroke-width="10.987512" stroke-linecap="square" stroke-linejoin="bevel"/><ellipse id="shape05" transform="translate(349.199986640245, 307.637255160631)" rx="14.0399994628552" ry="13.941366001493" cx="14.0399994628552" cy="13.941366001493" fill="#d6e5de" fill-rule="evenodd" stroke="none" stroke-width="10.987512" stroke-linecap="square" stroke-linejoin="bevel"/><path id="shape11" transform="matrix(0.991341571541097 -0.131308371912948 0.131308371912948 0.991341571541097 255.616458065592 389.176915408409)" sodipodi:type="arc" sodipodi:rx="55.9701441067643" sodipodi:ry="43.56" sodipodi:cx="55.4718085646058" sodipodi:cy="-1.03386916117425e-14" sodipodi:start="6.28318530717959" sodipodi:end="3.0080498541946" sodipodi:open="true" d="M0 5.79985C3.92274 28.5251 29.81 44.9928 59.2062 43.4629C88.6025 41.933 111.442 22.9294 111.442 1.95509e-14" fill="none" stroke="#455c06" stroke-width="10.987512" stroke-linecap="square" stroke-linejoin="bevel"/><path id="shape12" transform="translate(270.719989642747, 420.479983913202)" fill="#e9f7ff" fill-rule="evenodd" stroke="none" stroke-width="10.987512" stroke-linecap="square" stroke-linejoin="bevel" d="M1.44 0L19.44 5.76L0 30.96L1.44 0" sodipodi:nodetypes="cccc"/><path id="shape06" transform="matrix(-0.977506677386606 0.210904470470871 0.210904470470871 0.977506677386606 364.428452046259 407.182264085408)" fill="#e9f7ff" fill-rule="evenodd" stroke-opacity="0" stroke="#000000" stroke-width="0" stroke-linecap="square" stroke-linejoin="bevel" d="M1.49333 0L20.16 5.76L0 30.96L1.49333 0" sodipodi:nodetypes="cccc"/><ellipse id="shape07" transform="matrix(0.969160321690898 0.246431067156711 -0.246431067156711 0.969160321690898 284.806492364644 363.726310782816)" rx="7.01999973142761" ry="7.10136626317893" cx="7.01999973142761" cy="7.10136626317893" fill="#435c00" fill-rule="evenodd" stroke-opacity="0" stroke="#000000" stroke-width="0" stroke-linecap="square" stroke-linejoin="bevel"/><ellipse id="shape08" transform="matrix(0.985613670450757 -0.169013882922634 0.169013882922634 0.985613670450757 317.428762890455 361.486439580451)" rx="7.01999973142761" ry="7.10136626317893" cx="7.01999973142761" cy="7.10136626317893" fill="#435c00" fill-rule="evenodd" stroke-opacity="0" stroke="#000000" stroke-width="0" stroke-linecap="square" stroke-linejoin="bevel"/><path id="shape13" transform="matrix(0.66208430471042 -0.749429365221379 0.749429365221379 0.66208430471042 191.082998980542 286.62447250433)" fill="none" stroke="#364a00" stroke-width="10.987512" stroke-linecap="square" stroke-linejoin="miter" stroke-miterlimit="2" d="M0 0L67.68 27.84" sodipodi:nodetypes="cc"/><path id="shape14" transform="matrix(0.570625923135279 0.821210116746022 -0.821210116746022 0.570625923135279 362.568520501582 219.908274451408)" fill="none" stroke="#364a00" stroke-width="10.987512" stroke-linecap="square" stroke-linejoin="miter" stroke-miterlimit="2" d="M59.04 0L0 47.28" sodipodi:nodetypes="cc"/><path id="shape15" transform="matrix(-0.99564655068863 0.0932091524575296 -0.0932091524575296 -0.99564655068863 367.706726949118 162.242275545547)" sodipodi:type="arc" sodipodi:rx="91.7778761017059" sodipodi:ry="82.6800511953763" sodipodi:cx="91.135304305679" sodipodi:cy="1.63372273643448e-14" sodipodi:start="6.28318530717959" sodipodi:end="3.02319024413466" sodipodi:open="true" d="M0 9.76666C5.73837 53.2232 48.0722 85.1245 96.5655 82.5352C145.059 79.9459 182.913 43.7629 182.913 7.9987e-16" fill="#5f3e1d" fill-rule="evenodd" stroke="#3b2300" stroke-width="10.987512" stroke-linecap="square" stroke-linejoin="bevel"/><rect id="shape16" transform="matrix(0.990546977232505 -0.13717392571312 0.13717392571312 0.990546977232505 175.525708555383 182.433046195513)" fill="#5f3e1d" fill-rule="evenodd" stroke="#3b2300" stroke-width="10.987512" stroke-linecap="square" stroke-linejoin="bevel" width="201.6" height="35.3686978178278"/><rect id="shape17" transform="matrix(0.989201342223633 -0.146562971254562 0.146562971254562 0.989201342223633 241.009116041745 75.0605509628744)" fill="#5f3e1d" fill-rule="evenodd" stroke="#3b2300" stroke-width="10.987512" stroke-linecap="square" stroke-linejoin="bevel" width="44.64" height="94.32"/><ellipse id="shape18" transform="translate(210.239991956601, 184.319997107682)" rx="9.35999964190348" ry="9.35999756218906" cx="9.35999964190348" cy="9.35999756218906" fill="#ffb100" fill-rule="evenodd" stroke="none" stroke-width="10.987512" stroke-linecap="square" stroke-linejoin="bevel"/><ellipse id="shape09" transform="translate(332.399991873963, 168.599997135228)" rx="9.35999964190348" ry="9.35999756218906" cx="9.35999964190348" cy="9.35999756218906" fill="#ffb100" fill-rule="evenodd" stroke-opacity="0" stroke="#000000" stroke-width="0" stroke-linecap="square" stroke-linejoin="bevel"/><ellipse id="shape010" transform="translate(267.119989780476, 172.799993388987)" rx="13.0800051923997" ry="11.5199995592658" cx="13.0800051923997" cy="11.5199995592658" fill="#ffb100" fill-rule="evenodd" stroke-opacity="0" stroke="#000000" stroke-width="0" stroke-linecap="square" stroke-linejoin="bevel"/>
</svg>
