<?xml version="1.0" standalone="no"?>
<!DOCTYPE svg PUBLIC "-//W3C//DTD SVG 20010904//EN" "http://www.w3.org/TR/2001/REC-SVG-20010904/DTD/svg10.dtd">
<!-- Created using Krita: https://krita.org -->
<svg xmlns="http://www.w3.org/2000/svg" 
    xmlns:xlink="http://www.w3.org/1999/xlink"
    xmlns:krita="http://krita.org/namespaces/svg/krita"
    xmlns:sodipodi="http://sodipodi.sourceforge.net/DTD/sodipodi-0.dtd"
    width="595.2pt"
    height="568.32pt"
    viewBox="0 0 595.2 568.32">
<defs/>
<path id="shape0" transform="matrix(-0.989020131863428 0.147788668510659 0.149292080048538 0.988793140568233 503.907451224831 289.108521887147)" fill="#000000" fill-rule="evenodd" stroke-opacity="0" stroke="#000000" stroke-width="0" stroke-linecap="square" stroke-linejoin="bevel" d="M61.2256 0L0 80.3434L62.1129 43.4644L23.9579 121.174L62.1129 93.5144L43.4791 136.979L70.0989 117.222L61.2256 0" sodipodi:nodetypes="cccccccc"/><path id="shape01" transform="matrix(0.988601451809255 0.150563877646457 -0.149060412968363 0.988828090866003 91.2690774658715 283.729458878158)" fill="#0f0900" fill-rule="evenodd" stroke-opacity="0" stroke="#000000" stroke-width="0" stroke-linecap="square" stroke-linejoin="bevel" d="M57.6645 0L0 80.3434L58.5002 43.4644L22.5644 121.174L58.5002 93.5144L40.9502 136.979L66.0217 117.222L57.6645 0" sodipodi:nodetypes="cccccccc"/><path id="shape02" transform="matrix(-0.993454127970215 0.114231762741101 0.114231762741101 0.993454127970215 500.388584302293 391.910049427172)" fill="#120d07" fill-rule="evenodd" stroke-opacity="0" stroke="#000000" stroke-width="0" stroke-linecap="square" stroke-linejoin="bevel" d="M51.544 0L0 66.6033L52.291 36.0313L20.1694 100.451L52.291 77.5219L36.6037 113.553L59.0142 97.1754L51.544 0" sodipodi:nodetypes="cccccccc"/><path id="shape1" transform="translate(83.5199950218205, 407.04)" fill="#160e03" fill-rule="evenodd" stroke="none" stroke-width="10.987512" stroke-linecap="square" stroke-linejoin="bevel" d="M65.4015 0L0 66.5838L66.3494 36.0208L25.5919 100.422L66.3494 77.4992L46.4446 113.52L74.88 97.1469L65.4015 0" sodipodi:nodetypes="cccccccc"/><path id="shape2" transform="translate(54.72, 23.8182795187616)" fill="none" d="M94.08 216.182C119.833 216.182 168.402 199.996 199.68 210.422C237.993 223.193 333.731 220.982 377.28 220.982C377.6 220.982 377.954 221.125 378.24 220.982C396.41 211.897 438.651 155.754 461.76 138.422C469.202 132.84 482.88 120.182 482.88 120.182C482.88 120.182 472.033 124.117 466.56 125.942C441.241 134.381 405.048 126.368 384 110.582C339.794 77.4272 363.148 32.9555 301.44 2.10172C289.384 -3.92623 298.555 4.4941 301.44 8.82172C317.089 32.2953 281.831 60.2839 261.12 65.4617C240.224 70.6858 214.533 57.2751 201.6 44.3417C193.376 36.1178 205.806 12.068 201.6 7.86172C198.736 4.99753 183.939 9.78172 180.48 9.78172C117.196 9.78172 133.121 62.9006 99.84 96.1817C78.616 117.406 45.4312 120.182 16.32 120.182C10.88 120.182 0 120.182 0 120.182C0 120.182 13.2323 127.55 17.28 133.622C38.5507 165.528 71.1484 193.25 94.08 216.182" sodipodi:nodetypes="ccccccccccccccccccc"/><path id="shape3" transform="translate(49.92, 27.8063852864312)" fill="none" d="M7.68 129.634C7.68 133.426 31.2686 148.422 35.52 152.674C56.2702 173.424 72.4129 197.246 92.16 216.994C93.209 218.043 120.744 210.274 125.76 210.274C173.825 210.274 223.163 208.417 269.76 215.074C283.224 216.997 376.088 222.025 383.04 215.074C413.377 184.737 460.034 161.886 480 121.954C481.047 119.861 479.729 119.074 482.88 119.074C483.2 119.074 482.24 119.074 481.92 119.074C473.508 119.074 465.61 120.994 456.96 120.994C440.961 120.994 420.982 112.49 408 102.754C372.063 75.801 355.165 27.376 313.92 6.75361C309.015 4.30115 303.566 4.58235 298.56 2.91361C298.258 2.81282 293.76 0.938367 293.76 0.993615C293.76 41.9142 246.331 71.7743 206.4 45.1536C192.749 36.0532 191.4 15.6336 197.76 2.91361C197.934 2.56521 199.102 0.415204 198.72 0.0336147C198.035 -0.651114 166.671 9.33788 164.16 10.5936C137.871 23.7383 127.558 76.9551 106.56 97.9536C93.0841 111.43 62.5605 109.913 45.12 114.274C32.6356 117.395 11.8851 126.754 0 126.754" sodipodi:nodetypes="ccccccccccccccccccccc"/><rect id="shape4" transform="translate(173.28, 108.48)" fill="#333333" fill-rule="evenodd" stroke="none" stroke-width="10.987512" stroke-linecap="square" stroke-linejoin="bevel" width="248.64" height="133.44"/><rect id="shape5" transform="translate(138.24, 144)" fill="#333333" fill-rule="evenodd" stroke="none" stroke-width="10.987512" stroke-linecap="square" stroke-linejoin="bevel" width="72" height="95.04"/><rect id="shape03" transform="translate(407.04, 132.48)" fill="#333333" fill-rule="evenodd" stroke-opacity="0" stroke="#000000" stroke-width="0" stroke-linecap="square" stroke-linejoin="bevel" width="46.08" height="106.56"/><path id="shape6" transform="translate(64.32, 109.44)" fill="#333333" fill-rule="evenodd" stroke="none" stroke-width="10.987512" stroke-linecap="square" stroke-linejoin="bevel" d="M108.325 7.68L0 50.88L75.529 123.84L141.12 0L108.325 7.68" sodipodi:nodetypes="ccccc"/><path id="shape04" transform="matrix(-1 0 0 1 521.28 104.64)" fill="#333333" fill-rule="evenodd" stroke-opacity="0" stroke="#000000" stroke-width="0" stroke-linecap="square" stroke-linejoin="bevel" d="M98.7452 7.68L0 50.88L68.8496 123.84L128.64 0L98.7452 7.68" sodipodi:nodetypes="ccccc"/><rect id="shape7" transform="translate(177.6, 92.16)" fill="#333333" fill-rule="evenodd" stroke="none" stroke-width="10.987512" stroke-linecap="square" stroke-linejoin="bevel" width="241.92" height="44.16"/><path id="shape8" transform="translate(185.28, 34.56)" fill="#333333" fill-rule="evenodd" stroke="none" stroke-width="10.987512" stroke-linecap="square" stroke-linejoin="bevel" d="M0 56.7771L16.3783 26.044L53.76 1.05143L99.84 52.5714L165.12 26.6514L171.84 0L207.674 23.7268L221.76 50.56C225.892 82.7409 188.429 89.1722 139.2 88.32L5.76 75.7029L0 56.7771" sodipodi:nodetypes="ccccccccccc"/><rect id="shape05" transform="matrix(0.999994212010528 -0.00340234411459964 0.00340234411459964 0.999994212010528 145.307266532656 243.397312421886)" fill="#e7cb8f" fill-rule="evenodd" stroke="#d1b38b" stroke-width="10.987512" stroke-linecap="square" stroke-linejoin="bevel" width="303.6" height="290.16"/><path id="shape9" transform="matrix(0.9999953914316 0.00303597028585831 -0.00303597028585831 0.9999953914316 146.032563195197 264.998598876963)" fill="none" stroke="#000000" stroke-width="10.987512" stroke-linecap="square" stroke-linejoin="miter" stroke-miterlimit="2" d="M303.489 0L0 116.122" sodipodi:nodetypes="cc"/><path id="shape10" transform="matrix(0.994069303350347 -0.108748425903811 0.108748425903811 0.994069303350347 152.141630994145 343.024668697062)" sodipodi:type="arc" sodipodi:rx="65.0034059348123" sodipodi:ry="100.69685234836" sodipodi:cx="60.0614448063852" sodipodi:cy="-2.27412344734478e-14" sodipodi:start="6.28318530717959" sodipodi:end="2.74914001065914" sodipodi:open="true" d="M8.14749e-15 38.5121C11.8617 82.904 42.3158 108.132 72.7351 98.7644C103.154 89.3972 125.065 48.0445 125.065 3.74439e-14" fill="#000000" fill-rule="evenodd" stroke="none" stroke-width="10.987512" stroke-linecap="square" stroke-linejoin="bevel"/><ellipse id="shape06" transform="translate(322.079995203155, 347.519976347617)" rx="41.9999885794192" ry="40.0800025721801" cx="41.9999885794192" cy="40.0800025721801" fill="#e9f7ff" fill-rule="evenodd" stroke-opacity="0" stroke="#000000" stroke-width="0" stroke-linecap="square" stroke-linejoin="bevel"/><ellipse id="shape07" transform="translate(336.71998748964, 368.117251044332)" rx="19.3199934815862" ry="18.5013606914999" cx="19.3199934815862" cy="18.5013606914999" fill="#aac7fe" fill-rule="evenodd" stroke-opacity="0" stroke="#000000" stroke-width="0" stroke-linecap="square" stroke-linejoin="bevel"/><path id="shape11" transform="translate(316.799978438435, 334.07997726235)" fill="none" stroke="#3b2300" stroke-width="10.987512" stroke-linecap="square" stroke-linejoin="miter" stroke-miterlimit="2" d="M85.44 0L0 30.72" sodipodi:nodetypes="cc"/><path id="shape08" transform="matrix(0.728356929538277 0.685197915345323 -0.685197915345323 0.728356929538277 322.013262924931 419.52564891088)" fill="none" stroke="#3b2300" stroke-width="10.987512" stroke-linecap="square" stroke-linejoin="miter" stroke-miterlimit="2" d="M51.7615 0C41.8067 30.3024 7.82304 16.3508 0 33.7045" sodipodi:nodetypes="cc"/><path id="shape09" transform="matrix(-0.485086109776726 0.874466389349352 0.874466389349352 0.485086109776726 247.706219979353 421.607020798217)" fill="none" stroke="#3b2300" stroke-width="10.987512" stroke-linecap="square" stroke-linejoin="miter" stroke-miterlimit="2" d="M38.1929 0C30.8476 43.4519 5.77233 23.4461 0 48.3302" sodipodi:nodetypes="cc"/><path id="shape010" transform="matrix(-0.998626910312326 -0.0523860095832571 0.0523860095832571 -0.998626910312326 323.937397299434 494.609127482175)" sodipodi:type="arc" sodipodi:rx="27.1349952066406" sodipodi:ry="24.4219820057315" sodipodi:cx="26.8933961762366" sodipodi:cy="3.58530204690834e-14" sodipodi:start="6.28318530717959" sodipodi:end="3.0080498541946" sodipodi:open="true" d="M0 3.25169C1.90179 15.9926 14.4523 25.2253 28.7039 24.3676C42.9555 23.5098 54.0284 12.8554 54.0284 1.06908e-13" fill="none" stroke="#b5966e" stroke-width="10.987512" stroke-linecap="square" stroke-linejoin="bevel"/><path id="shape011" transform="translate(320.578484371816, 342.946482477012)" fill="none" stroke="#3b2300" stroke-width="10.987512" stroke-linecap="square" stroke-linejoin="miter" stroke-miterlimit="2" d="M85.44 0L0 30.72" sodipodi:nodetypes="cc"/><path id="shape012" transform="matrix(0.728356929538277 0.685197915345323 -0.685197915345323 0.728356929538277 323.406612104752 424.68106559742)" fill="none" stroke="#3b2300" stroke-width="10.987512" stroke-linecap="square" stroke-linejoin="miter" stroke-miterlimit="2" d="M51.7615 0C41.8067 30.3024 7.82304 16.3508 0 33.7045" sodipodi:nodetypes="cc"/><path id="shape013" transform="matrix(-0.485086109776726 0.874466389349352 0.874466389349352 0.485086109776726 246.91798270681 426.184056662836)" fill="none" stroke="#3b2300" stroke-width="10.987512" stroke-linecap="square" stroke-linejoin="miter" stroke-miterlimit="2" d="M38.1929 0C30.8476 43.4519 5.77233 23.4461 0 48.3302" sodipodi:nodetypes="cc"/><path id="shape12" transform="translate(60.4799958837012, 163.199988892527)" fill="none" stroke="#000000" stroke-width="10.987512" stroke-linecap="square" stroke-linejoin="miter" stroke-miterlimit="2" d="M82.56 75.84L0 0" sodipodi:nodetypes="cc"/><path id="shape13" transform="translate(98.8799999999999, 231.36)" fill="#3b2300" fill-rule="evenodd" stroke="#271700" stroke-width="10.987512" stroke-linecap="square" stroke-linejoin="bevel" d="M50.3446 0L0 119.842L83.9077 38.4678L76.4492 102.088L118.403 42.9063L138.914 105.047L166.883 44.3859L201.378 94.6899L237.738 59.1812L266.64 103.567L291.812 32.5496L341.225 109.485L323.511 41.4268L387.84 125.76L349.615 1.47953L50.3446 0" sodipodi:nodetypes="cccccccccccccccc"/><path id="shape14" transform="translate(151.200009964057, 240.959983600143)" fill="none" stroke="#000000" stroke-width="10.987512" stroke-linecap="square" stroke-linejoin="miter" stroke-miterlimit="2" d="M0 0.96L292.8 0" sodipodi:nodetypes="cc"/><path id="shape014" transform="matrix(0.00410178495893981 0.999991587644694 -0.999991587644694 0.00410178495893981 525.936939777489 153.853474923493)" fill="none" stroke="#000000" stroke-width="10.987512" stroke-linecap="square" stroke-linejoin="miter" stroke-miterlimit="2" d="M85.8195 79.8897L0 0" sodipodi:nodetypes="cc"/><path id="shape015" transform="matrix(0.11648004335862 0.993193032345266 0.993193032345266 -0.11648004335862 52.7114614956872 61.7752356423287)" fill="none" stroke="#000000" stroke-width="10.987512" stroke-linecap="square" stroke-linejoin="miter" stroke-miterlimit="2" d="M100.19 0C80.9217 173.014 15.1424 93.3563 0 192.438" sodipodi:nodetypes="cc"/><path id="shape016" transform="matrix(0.012249907714117 0.999924967065533 -0.999924967065533 0.012249907714117 520.062327045104 34.4529216876943)" fill="none" stroke="#000000" stroke-width="10.987512" stroke-linecap="square" stroke-linejoin="miter" stroke-miterlimit="2" d="M116.779 0C94.32 150.875 17.6496 81.4103 0 167.813" sodipodi:nodetypes="cc"/><path id="shape15" transform="matrix(0.998819987244839 0.0485657603690108 -0.0485657603690108 0.998819987244839 246.624307863296 34.9572974147124)" sodipodi:type="arc" sodipodi:rx="52.3303093828073" sodipodi:ry="45.9658984616274" sodipodi:cx="51.9765843931552" sodipodi:cy="-1.12231495455083e-14" sodipodi:start="6.28318530717959" sodipodi:end="3.02525611044235" sodipodi:open="true" d="M0 5.33546C3.21752 29.5192 27.3462 47.3037 55.0188 45.8882C82.6915 44.4727 104.307 24.3483 104.307 -3.0234e-16" fill="none" stroke="#000000" stroke-width="10.987512" stroke-linecap="square" stroke-linejoin="bevel"/><path id="shape16" transform="translate(260.16, 116.16)" fill="none" stroke="#000000" stroke-width="10.987512" stroke-linecap="square" stroke-linejoin="miter" stroke-miterlimit="2" d="M0 0L74.88 68.16" sodipodi:nodetypes="cc"/><path id="shape017" transform="matrix(-0.334930741854359 0.94224274906253 -0.94224274906253 -0.334930741854359 337.094102540035 120.96)" fill="none" stroke="#000000" stroke-width="10.987512" stroke-linecap="square" stroke-linejoin="miter" stroke-miterlimit="2" d="M0 0L84.3833 53.835" sodipodi:nodetypes="cc"/><path id="shape018" transform="matrix(0.999945315059354 -0.0104578626329853 -0.0104578626329853 -0.999945315059354 138.253524376033 232.02638054791)" fill="none" stroke="#000000" stroke-width="10.987512" stroke-linecap="square" stroke-linejoin="miter" stroke-miterlimit="2" d="M0 0.96L311.04 0" sodipodi:nodetypes="cc"/><rect id="shape17" transform="matrix(0.790796901306232 -0.612078639461034 0.612078639461034 0.790796901306232 41.2438263245535 378.109102445731)" fill="#ffb100" fill-rule="evenodd" stroke="#d9a152" stroke-width="10.987512" stroke-linecap="square" stroke-linejoin="bevel" width="54.6308697304929" height="230.614568254163" rx="12.653524557616" ry="12.653524557616"/><path id="shape18" transform="translate(118.079999999997, 440.639999999987)" fill="none" stroke="#fe3521" stroke-width="10.987512" stroke-linecap="square" stroke-linejoin="miter" stroke-miterlimit="2" d="M0 39.36L43.2 0" sodipodi:nodetypes="cc"/><ellipse id="shape19" transform="translate(121.92, 442.56)" rx="18.7199999999977" ry="18.2399999999932" cx="18.7199999999977" cy="18.2399999999932" fill="#780422" fill-rule="evenodd" stroke="#fe3521" stroke-width="10.987512" stroke-linecap="square" stroke-linejoin="bevel"/><path id="shape20" transform="matrix(-1 0 0 1 141.119999999996 479.999999999986)" fill="none" stroke="#fe3521" stroke-width="10.987512" stroke-linecap="square" stroke-linejoin="miter" stroke-miterlimit="2" d="M0.96 0L0 35.52" sodipodi:nodetypes="cc"/><path id="shape21" transform="translate(158.399999999995, 472.319999999987)" fill="none" stroke="#fe3521" stroke-width="10.987512" stroke-linecap="square" stroke-linejoin="miter" stroke-miterlimit="2" d="M0 0L34.56 17.28" sodipodi:nodetypes="cc"/><ellipse id="shape22" transform="matrix(0.628535274788681 0.777781079961657 -0.777781079961657 0.628535274788681 81.2461447871187 338.597325147244)" rx="16.6480194329629" ry="29.594497802423" cx="16.6480194329629" cy="29.594497802423" fill="#ffb100" fill-rule="evenodd" stroke="#d7980b" stroke-width="5.9472" stroke-linecap="square" stroke-linejoin="bevel"/><path id="shape23" transform="matrix(0.577342325973914 0.816502197571464 -0.816502197571464 0.577342325973914 81.0279820364347 346.903605211403)" fill="none" stroke="#d7980b" stroke-width="3.3072" stroke-linecap="square" stroke-linejoin="bevel" stroke-dasharray="13.2288,6.6144" d="M7.15862 19.4292C7.15862 14.4231 11.6748 13.3495 14.1238 15.57C17.774 18.8795 14.0992 33.1229 11.0281 34.5151C10.2102 34.8859 8.46192 36.5739 7.35209 35.5676C-1.15919 27.8507 0.0335223 8.172 8.126 0.834833C14.7312 -5.15389 29.3946 22.6117 22.4432 35.2168C19.1069 41.2666 9.72908 50.3696 4.44995 43.9877C3.26945 42.5606 0.909644 35.2168 0 35.2168" sodipodi:nodetypes="cccccccc"/>
</svg>
