<?xml version="1.0" standalone="no"?>
<!DOCTYPE svg PUBLIC "-//W3C//DTD SVG 20010904//EN" "http://www.w3.org/TR/2001/REC-SVG-20010904/DTD/svg10.dtd">
<!-- Created using Krita: https://krita.org -->
<svg xmlns="http://www.w3.org/2000/svg" 
    xmlns:xlink="http://www.w3.org/1999/xlink"
    xmlns:krita="http://krita.org/namespaces/svg/krita"
    xmlns:sodipodi="http://sodipodi.sourceforge.net/DTD/sodipodi-0.dtd"
    width="595.44pt"
    height="568.8pt"
    viewBox="0 0 595.44 568.8">
<defs/>
<path id="shape0" transform="translate(38.8799997252333, 421.148837331848)" fill="#fecada" fill-rule="evenodd" stroke="#f2b1c5" stroke-width="8.64" stroke-linecap="square" stroke-linejoin="bevel" d="M130.314 0.0950818C110.842 0.0950818 7.71132 -1.16176 0.160646 5.46362C-0.978419 6.46309 4.30264 10.2922 4.61032 10.8321C10.6138 21.3677 48.7328 23.1132 61.8999 28.8899C71.4768 33.0916 122.919 41.0912 131.982 41.0912" sodipodi:nodetypes="ccccc"/><path id="shape1" transform="translate(448.727623642943, 233.657674402656)" fill="#fecada" fill-rule="evenodd" stroke="#f3a5be" stroke-width="8.64" stroke-linecap="square" stroke-linejoin="bevel" d="M0.55724 127.389C25.8569 127.389 -10.1436 -26.4375 99.746 3.98271C114.567 8.08566 122.805 36.9777 119.249 52.7282C112.974 80.524 81.0491 74.6653 67.4261 89.7501C37.51 122.876 64.6118 228.582 0 228.582" sodipodi:nodetypes="ccccc"/><rect id="shape01" transform="matrix(0.999951237155285 0.00987538918883662 -0.00987538918883662 0.999951237155285 175.461769411261 195.597369701239)" fill="#fedabb" fill-rule="evenodd" stroke="#fec28e" stroke-width="10.987512" stroke-linecap="square" stroke-linejoin="bevel" width="274.296925350806" height="269.535770342652"/><path id="shape2" transform="matrix(0.803693581045956 0.595043383112134 -0.595043383112134 0.803693581045956 288.570320490832 152.270040933023)" fill="none" stroke="#fec28e" stroke-width="14.4" stroke-linecap="square" stroke-linejoin="bevel" d="M97.2618 114.875C97.2618 85.0409 154.418 83.8452 166.29 106.774C198.605 169.192 118.196 220.722 71.045 175.186C60.749 165.243 56.1312 143.321 54.3772 129.77C40.0609 19.1626 197.202 20.8571 232.366 77.4551C317.909 215.144 140.654 308.599 31.7567 216.578C-13.7821 178.096 -8.88841 74.2353 37.1142 37.213C55.258 22.611 93.1524 1.9747 116.04 0.132716C129.723 -0.968434 200.806 4.76749 207.609 17.9061" sodipodi:nodetypes="ccccccccc"/><path id="shape3" transform="translate(462.662098985591, 141.342340168878)" fill="none" stroke="#f3a5be" stroke-width="14.4" stroke-linecap="square" stroke-linejoin="bevel" d="M34.408 93.6947C34.408 74.0566 0 29.4283 0 0" sodipodi:nodetypes="cc"/><path id="shape4" transform="translate(535.680000234061, 139.419445094243)" fill="#fecada" fill-rule="evenodd" stroke="#f3a5be" stroke-width="14.4" stroke-linecap="square" stroke-linejoin="bevel" d="M0 90.4334C0 59.4538 14.1377 28.2255 14.1377 0" sodipodi:nodetypes="cc"/><ellipse id="shape5" transform="translate(452.160000055971, 107.280000015265)" rx="14.4" ry="13.68" cx="14.4" cy="13.68" fill="#f6fdff" fill-rule="evenodd" stroke="#f3a5be" stroke-width="7.92" stroke-linecap="square" stroke-linejoin="bevel"/><ellipse id="shape02" transform="translate(537.632062336536, 105.488062911511)" rx="14.4" ry="13.68" cx="14.4" cy="13.68" fill="#f6fdff" fill-rule="evenodd" stroke="#f3a5be" stroke-width="7.92" stroke-linecap="square" stroke-linejoin="bevel"/><path id="shape6" transform="matrix(-0.951863839443825 -0.306521175711022 -0.306521175711022 0.951863839443825 520.746457786663 258.403680023974)" fill="none" stroke="#f3a5be" stroke-width="5.04" stroke-linecap="square" stroke-linejoin="miter" stroke-miterlimit="2" d="M5.53241 0L0 28.98" sodipodi:nodetypes="cc"/><path id="shape03" transform="matrix(0.801490121948384 -0.598008013674714 0.598008013674714 0.801490121948384 531.896694830444 258.009269396185)" fill="none" stroke="#f3a5be" stroke-width="5.04" stroke-linecap="square" stroke-linejoin="miter" stroke-miterlimit="2" d="M3.23855 0L0 28.98" sodipodi:nodetypes="cc"/><ellipse id="shape7" transform="translate(505.845000223981, 285.525000144344)" rx="5.33249036631347" ry="5.39999446517209" cx="5.33249036631347" cy="5.39999446517209" fill="#f3a5be" fill-rule="evenodd" stroke="none" stroke-width="14.4" stroke-linecap="square" stroke-linejoin="bevel"/><ellipse id="shape04" transform="translate(546.479998725795, 279.000005534828)" rx="5.33249036631347" ry="5.39999446517209" cx="5.33249036631347" cy="5.39999446517209" fill="#f3a5be" fill-rule="evenodd" stroke-opacity="0" stroke="#000000" stroke-width="0" stroke-linecap="square" stroke-linejoin="bevel"/><ellipse id="shape8" transform="translate(465.12, 115.2)" rx="5.76000000000002" ry="5.76" cx="5.76000000000002" cy="5.76" fill="#262626" fill-rule="evenodd" stroke="none" stroke-width="14.4" stroke-linecap="square" stroke-linejoin="bevel"/><ellipse id="shape05" transform="translate(550.079999399586, 113.400000012721)" rx="5.76000000000002" ry="5.76" cx="5.76000000000002" cy="5.76" fill="#262626" fill-rule="evenodd" stroke-opacity="0" stroke="#000000" stroke-width="0" stroke-linecap="square" stroke-linejoin="bevel"/>
</svg>
