<?xml version="1.0" standalone="no"?>
<!DOCTYPE svg PUBLIC "-//W3C//DTD SVG 20010904//EN" "http://www.w3.org/TR/2001/REC-SVG-20010904/DTD/svg10.dtd">
<!-- Created using Krita: https://krita.org -->
<svg xmlns="http://www.w3.org/2000/svg" 
    xmlns:xlink="http://www.w3.org/1999/xlink"
    xmlns:krita="http://krita.org/namespaces/svg/krita"
    xmlns:sodipodi="http://sodipodi.sourceforge.net/DTD/sodipodi-0.dtd"
    width="595.2pt"
    height="568.32pt"
    viewBox="0 0 595.2 568.32">
<defs/>
<rect id="shape0" transform="matrix(0.987847479419492 0.155426372937704 -0.155426372937704 0.987847479419492 169.114010809925 174.969364273879)" fill="#ebb965" fill-rule="evenodd" stroke="#dfae5f" stroke-width="10.987512" stroke-linecap="square" stroke-linejoin="bevel" width="303.6" height="290.16"/><path id="shape1" transform="matrix(-0.98209516061406 -0.188385497049152 0.188385497049152 -0.98209516061406 264.414021832563 336.765738851487)" sodipodi:type="arc" sodipodi:rx="37.3442624731825" sodipodi:ry="40.92" sodipodi:cx="37.2806514754892" sodipodi:cy="-1.00008311046601e-14" sodipodi:start="6.28318530717959" sodipodi:end="3.08321712525511" sodipodi:open="true" d="M0 2.38737C1.17853 24.4841 18.1788 41.5485 38.3705 40.9026C58.5622 40.2566 74.6249 22.1345 74.6249 1.80161e-14" fill="none" stroke="#ff7f00" stroke-width="10.987512" stroke-linecap="square" stroke-linejoin="bevel"/><path id="shape01" transform="matrix(-0.98209516061406 -0.188385497049152 0.188385497049152 -0.98209516061406 398.942766106339 358.392039748352)" sodipodi:type="arc" sodipodi:rx="37.3442624731825" sodipodi:ry="40.92" sodipodi:cx="37.2806514754892" sodipodi:cy="-7.105427357601e-15" sodipodi:start="6.28318530717959" sodipodi:end="3.08321712525511" sodipodi:open="true" d="M0 2.38737C1.17853 24.4841 18.1788 41.5485 38.3705 40.9026C58.5622 40.2566 74.6249 22.1345 74.6249 1.1195e-13" fill="none" stroke="#ff7f00" stroke-width="10.987512" stroke-linecap="square" stroke-linejoin="bevel"/><path id="shape02" transform="matrix(0.98544700410035 0.169982946526019 -0.169982946526019 0.98544700410035 261.179667094223 379.577814513679)" sodipodi:type="arc" sodipodi:rx="27.2182205879126" sodipodi:ry="40.92" sodipodi:cx="27.1718579594291" sodipodi:cy="-7.105427357601e-15" sodipodi:start="6.28318530717959" sodipodi:end="3.08321712525511" sodipodi:open="true" d="M0 2.38737C0.858968 24.4841 13.2496 41.5485 27.9662 40.9026C42.6828 40.2566 54.3901 22.1345 54.3901 1.1195e-13" fill="none" stroke="#ff7f00" stroke-width="10.987512" stroke-linecap="square" stroke-linejoin="bevel"/><rect id="shape2" transform="matrix(0.988700943296645 0.149901450040831 -0.149901450040831 0.988700943296645 239.433880362359 154.96181292949)" fill="#4376dc" fill-rule="evenodd" stroke="#1f5883" stroke-width="10.987512" stroke-linecap="square" stroke-linejoin="bevel" width="169.749949495997" height="34.7337234565915"/><rect id="shape3" transform="matrix(0.986963964461865 0.160941395711979 -0.160941395711979 0.986963964461865 289.240795940624 83.4029222411096)" fill="#1e74fd" fill-rule="evenodd" stroke="#1f5883" stroke-width="10.987512" stroke-linecap="square" stroke-linejoin="bevel" width="95.1883805309241" height="75.3678097984241"/><path id="shape4" transform="translate(478.079995957421, 125.999998934561)" fill="none" stroke="#ffff00" stroke-width="10.987512" stroke-linecap="square" stroke-linejoin="miter" stroke-miterlimit="2" d="M0 52.56L39.6 0" sodipodi:nodetypes="cc"/><path id="shape5" transform="translate(496.799995799128, 195.839998344004)" fill="none" stroke="#ffff00" stroke-width="10.987512" stroke-linecap="square" stroke-linejoin="miter" stroke-miterlimit="2" d="M0 15.12L80.64 0" sodipodi:nodetypes="cc"/><path id="shape6" transform="translate(123.839998952826, 64.0799994581484)" fill="none" stroke="#ffff00" stroke-width="10.987512" stroke-linecap="square" stroke-linejoin="miter" stroke-miterlimit="2" d="M0 0L25.92 72.72" sodipodi:nodetypes="cc"/><path id="shape7" transform="translate(51.1199995677364, 125.27999894065)" fill="none" stroke="#ffff00" stroke-width="10.987512" stroke-linecap="square" stroke-linejoin="miter" stroke-miterlimit="2" d="M0 0L77.04 38.16" sodipodi:nodetypes="cc"/>
</svg>
